{
	"asset":{
		"generator":"Khronos glTF Blender I/O v3.5.30",
		"version":"2.0"
	},
	"scene":0,
	"scenes":[
		{
			"name":"Scene",
			"nodes":[
				4
			]
		}
	],
	"nodes":[
		{
			"mesh":0,
			"name":"Cube",
			"rotation":[
				-0.7071068286895752,
				0,
				0,
				0.7071068286895752
			],
			"translation":[
				0,
				-1.8266897201538086,
				6.737792491912842
			]
		},
		{
			"children":[
				0
			],
			"name":"Empty",
			"translation":[
				0.325534462928772,
				-3.5336008071899414,
				-3.04544734954834
			]
		},
		{
			"mesh":1,
			"name":"Sphere",
			"translation":[
				1.1476588249206543,
				-2.4078786373138428,
				-0.4937734603881836
			]
		},
		{
			"children":[
				2
			],
			"name":"Empty.002",
			"translation":[
				-0.7458385229110718,
				-0.6232309341430664,
				6.145449161529541
			]
		},
		{
			"children":[
				1,
				3
			],
			"name":"Empty.001",
			"translation":[
				-0.325534462928772,
				5.36029052734375,
				3.307654857635498
			]
		}
	],
	"animations":[
		{
			"channels":[
				{
					"sampler":0,
					"target":{
						"node":4,
						"path":"translation"
					}
				},
				{
					"sampler":1,
					"target":{
						"node":4,
						"path":"rotation"
					}
				},
				{
					"sampler":2,
					"target":{
						"node":4,
						"path":"scale"
					}
				}
			],
			"name":"Empty.001Action.001",
			"samplers":[
				{
					"input":8,
					"interpolation":"LINEAR",
					"output":9
				},
				{
					"input":8,
					"interpolation":"LINEAR",
					"output":10
				},
				{
					"input":8,
					"interpolation":"LINEAR",
					"output":11
				}
			]
		},
		{
			"channels":[
				{
					"sampler":0,
					"target":{
						"node":1,
						"path":"translation"
					}
				},
				{
					"sampler":1,
					"target":{
						"node":1,
						"path":"rotation"
					}
				},
				{
					"sampler":2,
					"target":{
						"node":1,
						"path":"scale"
					}
				}
			],
			"name":"EmptyAction.001",
			"samplers":[
				{
					"input":8,
					"interpolation":"LINEAR",
					"output":12
				},
				{
					"input":8,
					"interpolation":"LINEAR",
					"output":13
				},
				{
					"input":8,
					"interpolation":"LINEAR",
					"output":14
				}
			]
		},
		{
			"channels":[
				{
					"sampler":0,
					"target":{
						"node":3,
						"path":"translation"
					}
				},
				{
					"sampler":1,
					"target":{
						"node":3,
						"path":"rotation"
					}
				},
				{
					"sampler":2,
					"target":{
						"node":3,
						"path":"scale"
					}
				}
			],
			"name":"Empty.002Action.001",
			"samplers":[
				{
					"input":15,
					"interpolation":"LINEAR",
					"output":16
				},
				{
					"input":15,
					"interpolation":"LINEAR",
					"output":17
				},
				{
					"input":15,
					"interpolation":"LINEAR",
					"output":18
				}
			]
		}
	],
	"meshes":[
		{
			"name":"Cube.001",
			"primitives":[
				{
					"attributes":{
						"POSITION":0,
						"TEXCOORD_0":1,
						"NORMAL":2
					},
					"indices":3
				}
			]
		},
		{
			"name":"Sphere.001",
			"primitives":[
				{
					"attributes":{
						"POSITION":4,
						"TEXCOORD_0":5,
						"NORMAL":6
					},
					"indices":7
				}
			]
		}
	],
	"accessors":[
		{
			"bufferView":0,
			"componentType":5126,
			"count":44,
			"max":[
				1,
				1,
				4.141139984130859
			],
			"min":[
				-1,
				-3.67389178276062,
				-1
			],
			"type":"VEC3"
		},
		{
			"bufferView":1,
			"componentType":5126,
			"count":44,
			"type":"VEC2"
		},
		{
			"bufferView":2,
			"componentType":5126,
			"count":44,
			"type":"VEC3"
		},
		{
			"bufferView":3,
			"componentType":5123,
			"count":84,
			"type":"SCALAR"
		},
		{
			"bufferView":4,
			"componentType":5126,
			"count":1984,
			"max":[
				0.9999997019767761,
				1,
				0.9999993443489075
			],
			"min":[
				-0.9999990463256836,
				-1,
				-1
			],
			"type":"VEC3"
		},
		{
			"bufferView":5,
			"componentType":5126,
			"count":1984,
			"type":"VEC2"
		},
		{
			"bufferView":6,
			"componentType":5126,
			"count":1984,
			"type":"VEC3"
		},
		{
			"bufferView":7,
			"componentType":5123,
			"count":2880,
			"type":"SCALAR"
		},
		{
			"bufferView":8,
			"componentType":5126,
			"count":61,
			"max":[
				2.5
			],
			"min":[
				0
			],
			"type":"SCALAR"
		},
		{
			"bufferView":9,
			"componentType":5126,
			"count":61,
			"type":"VEC3"
		},
		{
			"bufferView":10,
			"componentType":5126,
			"count":61,
			"type":"VEC4"
		},
		{
			"bufferView":11,
			"componentType":5126,
			"count":61,
			"type":"VEC3"
		},
		{
			"bufferView":12,
			"componentType":5126,
			"count":61,
			"type":"VEC3"
		},
		{
			"bufferView":13,
			"componentType":5126,
			"count":61,
			"type":"VEC4"
		},
		{
			"bufferView":14,
			"componentType":5126,
			"count":61,
			"type":"VEC3"
		},
		{
			"bufferView":15,
			"componentType":5126,
			"count":71,
			"max":[
				2.9166666666666665
			],
			"min":[
				0
			],
			"type":"SCALAR"
		},
		{
			"bufferView":16,
			"componentType":5126,
			"count":71,
			"type":"VEC3"
		},
		{
			"bufferView":17,
			"componentType":5126,
			"count":71,
			"type":"VEC4"
		},
		{
			"bufferView":18,
			"componentType":5126,
			"count":71,
			"type":"VEC3"
		}
	],
	"bufferViews":[
		{
			"buffer":0,
			"byteLength":528,
			"byteOffset":0,
			"target":34962
		},
		{
			"buffer":0,
			"byteLength":352,
			"byteOffset":528,
			"target":34962
		},
		{
			"buffer":0,
			"byteLength":528,
			"byteOffset":880,
			"target":34962
		},
		{
			"buffer":0,
			"byteLength":168,
			"byteOffset":1408,
			"target":34963
		},
		{
			"buffer":0,
			"byteLength":23808,
			"byteOffset":1576,
			"target":34962
		},
		{
			"buffer":0,
			"byteLength":15872,
			"byteOffset":25384,
			"target":34962
		},
		{
			"buffer":0,
			"byteLength":23808,
			"byteOffset":41256,
			"target":34962
		},
		{
			"buffer":0,
			"byteLength":5760,
			"byteOffset":65064,
			"target":34963
		},
		{
			"buffer":0,
			"byteLength":244,
			"byteOffset":70824
		},
		{
			"buffer":0,
			"byteLength":732,
			"byteOffset":71068
		},
		{
			"buffer":0,
			"byteLength":976,
			"byteOffset":71800
		},
		{
			"buffer":0,
			"byteLength":732,
			"byteOffset":72776
		},
		{
			"buffer":0,
			"byteLength":732,
			"byteOffset":73508
		},
		{
			"buffer":0,
			"byteLength":976,
			"byteOffset":74240
		},
		{
			"buffer":0,
			"byteLength":732,
			"byteOffset":75216
		},
		{
			"buffer":0,
			"byteLength":284,
			"byteOffset":75948
		},
		{
			"buffer":0,
			"byteLength":852,
			"byteOffset":76232
		},
		{
			"buffer":0,
			"byteLength":1136,
			"byteOffset":77084
		},
		{
			"buffer":0,
			"byteLength":852,
			"byteOffset":78220
		}
	],
	"buffers":[
		{
			"byteLength":79072,
			"uri":"anim-empty.bin"
		}
	]
}
