{
	"asset":{
		"generator":"Khronos glTF Blender I/O v3.5.30",
		"version":"2.0"
	},
	"scene":0,
	"scenes":[
		{
			"name":"Scene",
			"nodes":[
				6
			]
		}
	],
	"nodes":[
		{
			"mesh":0,
			"name":"base_Mat_0"
		},
		{
			"children":[
				0
			],
			"name":"base",
			"translation":[
				0,
				-0.09190082550048828,
				0.04594993591308594
			]
		},
		{
			"mesh":1,
			"name":"clip_Mat_0"
		},
		{
			"children":[
				2
			],
			"name":"clip",
			"rotation":[
				0.17588458955287933,
				0,
				0,
				0.9844108819961548
			],
			"translation":[
				0,
				-3.0030016899108887,
				-1.0320415496826172
			]
		},
		{
			"mesh":2,
			"name":"slide_Mat_0"
		},
		{
			"children":[
				4
			],
			"name":"slide",
			"translation":[
				0,
				6.9547247886657715,
				7.909675598144531
			]
		},
		{
			"children":[
				1,
				3,
				5
			],
			"name":"BPpistol",
			"translation":[
				0,
				7.966770648956299,
				14.272184371948242
			]
		}
	],
	"animations":[
		{
			"channels":[
				{
					"sampler":0,
					"target":{
						"node":6,
						"path":"translation"
					}
				},
				{
					"sampler":1,
					"target":{
						"node":6,
						"path":"rotation"
					}
				}
			],
			"name":"allanims",
			"samplers":[
				{
					"input":18,
					"interpolation":"LINEAR",
					"output":19
				},
				{
					"input":18,
					"interpolation":"LINEAR",
					"output":20
				}
			]
		},
		{
			"channels":[
				{
					"sampler":0,
					"target":{
						"node":3,
						"path":"translation"
					}
				}
			],
			"name":"clipAction",
			"samplers":[
				{
					"input":21,
					"interpolation":"LINEAR",
					"output":22
				}
			]
		},
		{
			"channels":[
				{
					"sampler":0,
					"target":{
						"node":5,
						"path":"translation"
					}
				}
			],
			"name":"slideAction",
			"samplers":[
				{
					"input":23,
					"interpolation":"LINEAR",
					"output":24
				}
			]
		}
	],
	"materials":[
		{
			"name":"Mat_0.002",
			"normalTexture":{
				"index":0
			},
			"occlusionTexture":{
				"index":1
			},
			"pbrMetallicRoughness":{
				"baseColorTexture":{
					"index":2
				},
				"metallicRoughnessTexture":{
					"index":1
				}
			}
		}
	],
	"meshes":[
		{
			"name":"base_Mat_0.002",
			"primitives":[
				{
					"attributes":{
						"POSITION":0,
						"TEXCOORD_0":1,
						"TEXCOORD_1":2,
						"TEXCOORD_2":3,
						"NORMAL":4
					},
					"indices":5,
					"material":0
				}
			]
		},
		{
			"name":"clip_Mat_0.002",
			"primitives":[
				{
					"attributes":{
						"POSITION":6,
						"TEXCOORD_0":7,
						"TEXCOORD_1":8,
						"TEXCOORD_2":9,
						"NORMAL":10
					},
					"indices":11,
					"material":0
				}
			]
		},
		{
			"name":"slide_Mat_0.002",
			"primitives":[
				{
					"attributes":{
						"POSITION":12,
						"TEXCOORD_0":13,
						"TEXCOORD_1":14,
						"TEXCOORD_2":15,
						"NORMAL":16
					},
					"indices":17,
					"material":0
				}
			]
		}
	],
	"textures":[
		{
			"sampler":0,
			"source":0
		},
		{
			"sampler":0,
			"source":1
		},
		{
			"sampler":0,
			"source":2
		}
	],
	"images":[
		{
			"mimeType":"image/png",
			"name":"Mat_0_normal",
			"uri":"Mat_0_normal.png"
		},
		{
			"mimeType":"image/png",
			"name":"Mat_0_metallicRoughness",
			"uri":"Mat_0_metallicRoughness.png"
		},
		{
			"mimeType":"image/png",
			"name":"Mat_0_baseColor",
			"uri":"Mat_0_baseColor.png"
		}
	],
	"accessors":[
		{
			"bufferView":0,
			"componentType":5126,
			"count":1826,
			"max":[
				1.9412585496902466,
				8.479717254638672,
				21.010974884033203
			],
			"min":[
				-1.7608503103256226,
				-7.967512607574463,
				-6.290546894073486
			],
			"type":"VEC3"
		},
		{
			"bufferView":1,
			"componentType":5126,
			"count":1826,
			"type":"VEC2"
		},
		{
			"bufferView":2,
			"componentType":5126,
			"count":1826,
			"type":"VEC2"
		},
		{
			"bufferView":3,
			"componentType":5126,
			"count":1826,
			"type":"VEC2"
		},
		{
			"bufferView":4,
			"componentType":5126,
			"count":1826,
			"type":"VEC3"
		},
		{
			"bufferView":5,
			"componentType":5123,
			"count":5736,
			"type":"SCALAR"
		},
		{
			"bufferView":6,
			"componentType":5126,
			"count":344,
			"max":[
				1.5522288084030151,
				9.218518257141113,
				2.6088626384735107
			],
			"min":[
				-1.5522288084030151,
				-9.640681266784668,
				-2.28061580657959
			],
			"type":"VEC3"
		},
		{
			"bufferView":7,
			"componentType":5126,
			"count":344,
			"type":"VEC2"
		},
		{
			"bufferView":8,
			"componentType":5126,
			"count":344,
			"type":"VEC2"
		},
		{
			"bufferView":9,
			"componentType":5126,
			"count":344,
			"type":"VEC2"
		},
		{
			"bufferView":10,
			"componentType":5126,
			"count":344,
			"type":"VEC3"
		},
		{
			"bufferView":11,
			"componentType":5123,
			"count":684,
			"type":"SCALAR"
		},
		{
			"bufferView":12,
			"componentType":5126,
			"count":1471,
			"max":[
				1.5811214447021484,
				2.420760154724121,
				12.347171783447266
			],
			"min":[
				-1.5811214447021484,
				-2.420760154724121,
				-12.347171783447266
			],
			"type":"VEC3"
		},
		{
			"bufferView":13,
			"componentType":5126,
			"count":1471,
			"type":"VEC2"
		},
		{
			"bufferView":14,
			"componentType":5126,
			"count":1471,
			"type":"VEC2"
		},
		{
			"bufferView":15,
			"componentType":5126,
			"count":1471,
			"type":"VEC2"
		},
		{
			"bufferView":16,
			"componentType":5126,
			"count":1471,
			"type":"VEC3"
		},
		{
			"bufferView":17,
			"componentType":5123,
			"count":3633,
			"type":"SCALAR"
		},
		{
			"bufferView":18,
			"componentType":5126,
			"count":188,
			"max":[
				7.791666666666667
			],
			"min":[
				0
			],
			"type":"SCALAR"
		},
		{
			"bufferView":19,
			"componentType":5126,
			"count":188,
			"type":"VEC3"
		},
		{
			"bufferView":20,
			"componentType":5126,
			"count":188,
			"type":"VEC4"
		},
		{
			"bufferView":21,
			"componentType":5126,
			"count":58,
			"max":[
				2.375
			],
			"min":[
				0
			],
			"type":"SCALAR"
		},
		{
			"bufferView":22,
			"componentType":5126,
			"count":58,
			"type":"VEC3"
		},
		{
			"bufferView":23,
			"componentType":5126,
			"count":46,
			"max":[
				1.875
			],
			"min":[
				0
			],
			"type":"SCALAR"
		},
		{
			"bufferView":24,
			"componentType":5126,
			"count":46,
			"type":"VEC3"
		}
	],
	"bufferViews":[
		{
			"buffer":0,
			"byteLength":21912,
			"byteOffset":0,
			"target":34962
		},
		{
			"buffer":0,
			"byteLength":14608,
			"byteOffset":21912,
			"target":34962
		},
		{
			"buffer":0,
			"byteLength":14608,
			"byteOffset":36520,
			"target":34962
		},
		{
			"buffer":0,
			"byteLength":14608,
			"byteOffset":51128,
			"target":34962
		},
		{
			"buffer":0,
			"byteLength":21912,
			"byteOffset":65736,
			"target":34962
		},
		{
			"buffer":0,
			"byteLength":11472,
			"byteOffset":87648,
			"target":34963
		},
		{
			"buffer":0,
			"byteLength":4128,
			"byteOffset":99120,
			"target":34962
		},
		{
			"buffer":0,
			"byteLength":2752,
			"byteOffset":103248,
			"target":34962
		},
		{
			"buffer":0,
			"byteLength":2752,
			"byteOffset":106000,
			"target":34962
		},
		{
			"buffer":0,
			"byteLength":2752,
			"byteOffset":108752,
			"target":34962
		},
		{
			"buffer":0,
			"byteLength":4128,
			"byteOffset":111504,
			"target":34962
		},
		{
			"buffer":0,
			"byteLength":1368,
			"byteOffset":115632,
			"target":34963
		},
		{
			"buffer":0,
			"byteLength":17652,
			"byteOffset":117000,
			"target":34962
		},
		{
			"buffer":0,
			"byteLength":11768,
			"byteOffset":134652,
			"target":34962
		},
		{
			"buffer":0,
			"byteLength":11768,
			"byteOffset":146420,
			"target":34962
		},
		{
			"buffer":0,
			"byteLength":11768,
			"byteOffset":158188,
			"target":34962
		},
		{
			"buffer":0,
			"byteLength":17652,
			"byteOffset":169956,
			"target":34962
		},
		{
			"buffer":0,
			"byteLength":7266,
			"byteOffset":187608,
			"target":34963
		},
		{
			"buffer":0,
			"byteLength":752,
			"byteOffset":194876
		},
		{
			"buffer":0,
			"byteLength":2256,
			"byteOffset":195628
		},
		{
			"buffer":0,
			"byteLength":3008,
			"byteOffset":197884
		},
		{
			"buffer":0,
			"byteLength":232,
			"byteOffset":200892
		},
		{
			"buffer":0,
			"byteLength":696,
			"byteOffset":201124
		},
		{
			"buffer":0,
			"byteLength":184,
			"byteOffset":201820
		},
		{
			"buffer":0,
			"byteLength":552,
			"byteOffset":202004
		}
	],
	"samplers":[
		{
			"magFilter":9729,
			"minFilter":9987
		}
	],
	"buffers":[
		{
			"byteLength":202556,
			"uri":"GUN-2STEP.bin"
		}
	]
}
