{
	"asset":{
		"generator":"Khronos glTF Blender I/O v3.5.30",
		"version":"2.0"
	},
	"scene":0,
	"scenes":[
		{
			"name":"Scene",
			"nodes":[
				2
			]
		}
	],
	"nodes":[
		{
			"mesh":0,
			"name":"base_Mat_0"
		},
		{
			"children":[
				0
			],
			"name":"base",
			"translation":[
				0,
				-0.09190082550048828,
				0.04594993591308594
			]
		},
		{
			"children":[
				1
			],
			"name":"BPpistol",
			"translation":[
				0,
				7.966770648956299,
				14.272184371948242
			]
		}
	],
	"animations":[
		{
			"channels":[
				{
					"sampler":0,
					"target":{
						"node":2,
						"path":"translation"
					}
				},
				{
					"sampler":1,
					"target":{
						"node":2,
						"path":"rotation"
					}
				}
			],
			"name":"allanims",
			"samplers":[
				{
					"input":6,
					"interpolation":"LINEAR",
					"output":7
				},
				{
					"input":6,
					"interpolation":"LINEAR",
					"output":8
				}
			]
		}
	],
	"materials":[
		{
			"name":"Mat_0",
			"normalTexture":{
				"index":0
			},
			"occlusionTexture":{
				"index":1
			},
			"pbrMetallicRoughness":{
				"baseColorTexture":{
					"index":2
				},
				"metallicRoughnessTexture":{
					"index":1
				}
			}
		}
	],
	"meshes":[
		{
			"name":"base_Mat_0",
			"primitives":[
				{
					"attributes":{
						"POSITION":0,
						"TEXCOORD_0":1,
						"TEXCOORD_1":2,
						"TEXCOORD_2":3,
						"NORMAL":4
					},
					"indices":5,
					"material":0
				}
			]
		}
	],
	"textures":[
		{
			"sampler":0,
			"source":0
		},
		{
			"sampler":0,
			"source":1
		},
		{
			"sampler":0,
			"source":2
		}
	],
	"images":[
		{
			"mimeType":"image/png",
			"name":"Mat_0_normal",
			"uri":"Mat_0_normal.png"
		},
		{
			"mimeType":"image/png",
			"name":"Mat_0_metallicRoughness",
			"uri":"Mat_0_metallicRoughness.png"
		},
		{
			"mimeType":"image/png",
			"name":"Mat_0_baseColor",
			"uri":"Mat_0_baseColor.png"
		}
	],
	"accessors":[
		{
			"bufferView":0,
			"componentType":5126,
			"count":1826,
			"max":[
				1.9412585496902466,
				8.479717254638672,
				21.010974884033203
			],
			"min":[
				-1.7608503103256226,
				-7.967512607574463,
				-6.290546894073486
			],
			"type":"VEC3"
		},
		{
			"bufferView":1,
			"componentType":5126,
			"count":1826,
			"type":"VEC2"
		},
		{
			"bufferView":2,
			"componentType":5126,
			"count":1826,
			"type":"VEC2"
		},
		{
			"bufferView":3,
			"componentType":5126,
			"count":1826,
			"type":"VEC2"
		},
		{
			"bufferView":4,
			"componentType":5126,
			"count":1826,
			"type":"VEC3"
		},
		{
			"bufferView":5,
			"componentType":5123,
			"count":5736,
			"type":"SCALAR"
		},
		{
			"bufferView":6,
			"componentType":5126,
			"count":188,
			"max":[
				7.791666666666667
			],
			"min":[
				0
			],
			"type":"SCALAR"
		},
		{
			"bufferView":7,
			"componentType":5126,
			"count":188,
			"type":"VEC3"
		},
		{
			"bufferView":8,
			"componentType":5126,
			"count":188,
			"type":"VEC4"
		}
	],
	"bufferViews":[
		{
			"buffer":0,
			"byteLength":21912,
			"byteOffset":0,
			"target":34962
		},
		{
			"buffer":0,
			"byteLength":14608,
			"byteOffset":21912,
			"target":34962
		},
		{
			"buffer":0,
			"byteLength":14608,
			"byteOffset":36520,
			"target":34962
		},
		{
			"buffer":0,
			"byteLength":14608,
			"byteOffset":51128,
			"target":34962
		},
		{
			"buffer":0,
			"byteLength":21912,
			"byteOffset":65736,
			"target":34962
		},
		{
			"buffer":0,
			"byteLength":11472,
			"byteOffset":87648,
			"target":34963
		},
		{
			"buffer":0,
			"byteLength":752,
			"byteOffset":99120
		},
		{
			"buffer":0,
			"byteLength":2256,
			"byteOffset":99872
		},
		{
			"buffer":0,
			"byteLength":3008,
			"byteOffset":102128
		}
	],
	"samplers":[
		{
			"magFilter":9729,
			"minFilter":9987
		}
	],
	"buffers":[
		{
			"byteLength":105136,
			"uri":"simple-gun-anim.bin"
		}
	]
}
