{
	"asset":{
		"generator":"Khronos glTF Blender I/O v3.5.30",
		"version":"2.0"
	},
	"scene":0,
	"scenes":[
		{
			"name":"Scene",
			"nodes":[
				4,
				5
			]
		}
	],
	"nodes":[
		{
			"name":"Bone.002",
			"translation":[
				0,
				1,
				0
			]
		},
		{
			"children":[
				0
			],
			"name":"Bone.001",
			"translation":[
				0,
				1,
				0
			]
		},
		{
			"children":[
				1
			],
			"name":"Bone"
		},
		{
			"mesh":0,
			"name":"Plane",
			"skin":0
		},
		{
			"children":[
				3,
				2
			],
			"name":"Armature"
		},
		{
			"mesh":1,
			"name":"Sphere",
			"translation":[
				-2.1990320682525635,
				5.167379856109619,
				5.295180320739746
			]
		}
	],
	"animations":[
		{
			"channels":[
				{
					"sampler":0,
					"target":{
						"node":2,
						"path":"translation"
					}
				},
				{
					"sampler":1,
					"target":{
						"node":2,
						"path":"rotation"
					}
				},
				{
					"sampler":2,
					"target":{
						"node":2,
						"path":"scale"
					}
				},
				{
					"sampler":3,
					"target":{
						"node":1,
						"path":"translation"
					}
				},
				{
					"sampler":4,
					"target":{
						"node":1,
						"path":"rotation"
					}
				},
				{
					"sampler":5,
					"target":{
						"node":1,
						"path":"scale"
					}
				},
				{
					"sampler":6,
					"target":{
						"node":0,
						"path":"translation"
					}
				},
				{
					"sampler":7,
					"target":{
						"node":0,
						"path":"rotation"
					}
				},
				{
					"sampler":8,
					"target":{
						"node":0,
						"path":"scale"
					}
				}
			],
			"name":"ArmatureAction",
			"samplers":[
				{
					"input":11,
					"interpolation":"LINEAR",
					"output":12
				},
				{
					"input":11,
					"interpolation":"LINEAR",
					"output":13
				},
				{
					"input":11,
					"interpolation":"LINEAR",
					"output":14
				},
				{
					"input":11,
					"interpolation":"LINEAR",
					"output":15
				},
				{
					"input":11,
					"interpolation":"LINEAR",
					"output":16
				},
				{
					"input":11,
					"interpolation":"LINEAR",
					"output":17
				},
				{
					"input":11,
					"interpolation":"LINEAR",
					"output":18
				},
				{
					"input":11,
					"interpolation":"LINEAR",
					"output":19
				},
				{
					"input":11,
					"interpolation":"LINEAR",
					"output":20
				}
			]
		}
	],
	"meshes":[
		{
			"name":"Plane",
			"primitives":[
				{
					"attributes":{
						"POSITION":0,
						"TEXCOORD_0":1,
						"NORMAL":2,
						"JOINTS_0":3,
						"WEIGHTS_0":4
					},
					"indices":5
				}
			]
		},
		{
			"name":"Sphere",
			"primitives":[
				{
					"attributes":{
						"POSITION":7,
						"TEXCOORD_0":8,
						"NORMAL":9
					},
					"indices":10
				}
			]
		}
	],
	"skins":[
		{
			"inverseBindMatrices":6,
			"joints":[
				2,
				1,
				0
			],
			"name":"Armature"
		}
	],
	"accessors":[
		{
			"bufferView":0,
			"componentType":5126,
			"count":162,
			"max":[
				1,
				4,
				2.220445916901415e-16
			],
			"min":[
				-1,
				-2.220446049250313e-16,
				-3.019916050561733e-07
			],
			"type":"VEC3"
		},
		{
			"bufferView":1,
			"componentType":5126,
			"count":162,
			"type":"VEC2"
		},
		{
			"bufferView":2,
			"componentType":5126,
			"count":162,
			"type":"VEC3"
		},
		{
			"bufferView":3,
			"componentType":5121,
			"count":162,
			"type":"VEC4"
		},
		{
			"bufferView":4,
			"componentType":5126,
			"count":162,
			"type":"VEC4"
		},
		{
			"bufferView":5,
			"componentType":5123,
			"count":768,
			"type":"SCALAR"
		},
		{
			"bufferView":6,
			"componentType":5126,
			"count":3,
			"type":"MAT4"
		},
		{
			"bufferView":7,
			"componentType":5126,
			"count":1984,
			"max":[
				0.9999997019767761,
				1,
				0.9999993443489075
			],
			"min":[
				-0.9999990463256836,
				-1,
				-1
			],
			"type":"VEC3"
		},
		{
			"bufferView":8,
			"componentType":5126,
			"count":1984,
			"type":"VEC2"
		},
		{
			"bufferView":9,
			"componentType":5126,
			"count":1984,
			"type":"VEC3"
		},
		{
			"bufferView":10,
			"componentType":5123,
			"count":2880,
			"type":"SCALAR"
		},
		{
			"bufferView":11,
			"componentType":5126,
			"count":61,
			"max":[
				2.5
			],
			"min":[
				0
			],
			"type":"SCALAR"
		},
		{
			"bufferView":12,
			"componentType":5126,
			"count":61,
			"type":"VEC3"
		},
		{
			"bufferView":13,
			"componentType":5126,
			"count":61,
			"type":"VEC4"
		},
		{
			"bufferView":14,
			"componentType":5126,
			"count":61,
			"type":"VEC3"
		},
		{
			"bufferView":15,
			"componentType":5126,
			"count":61,
			"type":"VEC3"
		},
		{
			"bufferView":16,
			"componentType":5126,
			"count":61,
			"type":"VEC4"
		},
		{
			"bufferView":17,
			"componentType":5126,
			"count":61,
			"type":"VEC3"
		},
		{
			"bufferView":18,
			"componentType":5126,
			"count":61,
			"type":"VEC3"
		},
		{
			"bufferView":19,
			"componentType":5126,
			"count":61,
			"type":"VEC4"
		},
		{
			"bufferView":20,
			"componentType":5126,
			"count":61,
			"type":"VEC3"
		}
	],
	"bufferViews":[
		{
			"buffer":0,
			"byteLength":1944,
			"byteOffset":0,
			"target":34962
		},
		{
			"buffer":0,
			"byteLength":1296,
			"byteOffset":1944,
			"target":34962
		},
		{
			"buffer":0,
			"byteLength":1944,
			"byteOffset":3240,
			"target":34962
		},
		{
			"buffer":0,
			"byteLength":648,
			"byteOffset":5184,
			"target":34962
		},
		{
			"buffer":0,
			"byteLength":2592,
			"byteOffset":5832,
			"target":34962
		},
		{
			"buffer":0,
			"byteLength":1536,
			"byteOffset":8424,
			"target":34963
		},
		{
			"buffer":0,
			"byteLength":192,
			"byteOffset":9960
		},
		{
			"buffer":0,
			"byteLength":23808,
			"byteOffset":10152,
			"target":34962
		},
		{
			"buffer":0,
			"byteLength":15872,
			"byteOffset":33960,
			"target":34962
		},
		{
			"buffer":0,
			"byteLength":23808,
			"byteOffset":49832,
			"target":34962
		},
		{
			"buffer":0,
			"byteLength":5760,
			"byteOffset":73640,
			"target":34963
		},
		{
			"buffer":0,
			"byteLength":244,
			"byteOffset":79400
		},
		{
			"buffer":0,
			"byteLength":732,
			"byteOffset":79644
		},
		{
			"buffer":0,
			"byteLength":976,
			"byteOffset":80376
		},
		{
			"buffer":0,
			"byteLength":732,
			"byteOffset":81352
		},
		{
			"buffer":0,
			"byteLength":732,
			"byteOffset":82084
		},
		{
			"buffer":0,
			"byteLength":976,
			"byteOffset":82816
		},
		{
			"buffer":0,
			"byteLength":732,
			"byteOffset":83792
		},
		{
			"buffer":0,
			"byteLength":732,
			"byteOffset":84524
		},
		{
			"buffer":0,
			"byteLength":976,
			"byteOffset":85256
		},
		{
			"buffer":0,
			"byteLength":732,
			"byteOffset":86232
		}
	],
	"buffers":[
		{
			"byteLength":86964,
			"uri":"skin-and-stat.bin"
		}
	]
}
