{
	"asset":{
		"generator":"Khronos glTF Blender I/O v3.5.30",
		"version":"2.0"
	},
	"scene":0,
	"scenes":[
		{
			"name":"Scene",
			"nodes":[
				3
			]
		}
	],
	"nodes":[
		{
			"name":"Bone2",
			"translation":[
				0,
				1,
				0
			]
		},
		{
			"children":[
				0
			],
			"name":"Bone1"
		},
		{
			"mesh":0,
			"name":"Plane",
			"skin":0
		},
		{
			"children":[
				2,
				1
			],
			"name":"Armature"
		}
	],
	"animations":[
		{
			"channels":[
				{
					"sampler":0,
					"target":{
						"node":1,
						"path":"translation"
					}
				},
				{
					"sampler":1,
					"target":{
						"node":1,
						"path":"rotation"
					}
				},
				{
					"sampler":2,
					"target":{
						"node":1,
						"path":"scale"
					}
				},
				{
					"sampler":3,
					"target":{
						"node":0,
						"path":"translation"
					}
				},
				{
					"sampler":4,
					"target":{
						"node":0,
						"path":"rotation"
					}
				},
				{
					"sampler":5,
					"target":{
						"node":0,
						"path":"scale"
					}
				}
			],
			"name":"ArmatureAction",
			"samplers":[
				{
					"input":7,
					"interpolation":"LINEAR",
					"output":8
				},
				{
					"input":7,
					"interpolation":"LINEAR",
					"output":9
				},
				{
					"input":7,
					"interpolation":"LINEAR",
					"output":10
				},
				{
					"input":7,
					"interpolation":"LINEAR",
					"output":11
				},
				{
					"input":7,
					"interpolation":"LINEAR",
					"output":12
				},
				{
					"input":7,
					"interpolation":"LINEAR",
					"output":13
				}
			]
		}
	],
	"meshes":[
		{
			"name":"Plane",
			"primitives":[
				{
					"attributes":{
						"POSITION":0,
						"TEXCOORD_0":1,
						"NORMAL":2,
						"JOINTS_0":3,
						"WEIGHTS_0":4
					},
					"indices":5
				}
			]
		}
	],
	"skins":[
		{
			"inverseBindMatrices":6,
			"joints":[
				1,
				0
			],
			"name":"Armature"
		}
	],
	"accessors":[
		{
			"bufferView":0,
			"componentType":5126,
			"count":81,
			"max":[
				1,
				2,
				2.220445916901415e-16
			],
			"min":[
				-1,
				-2.220446049250313e-16,
				-1.5099580252808664e-07
			],
			"type":"VEC3"
		},
		{
			"bufferView":1,
			"componentType":5126,
			"count":81,
			"type":"VEC2"
		},
		{
			"bufferView":2,
			"componentType":5126,
			"count":81,
			"type":"VEC3"
		},
		{
			"bufferView":3,
			"componentType":5121,
			"count":81,
			"type":"VEC4"
		},
		{
			"bufferView":4,
			"componentType":5126,
			"count":81,
			"type":"VEC4"
		},
		{
			"bufferView":5,
			"componentType":5123,
			"count":384,
			"type":"SCALAR"
		},
		{
			"bufferView":6,
			"componentType":5126,
			"count":2,
			"type":"MAT4"
		},
		{
			"bufferView":7,
			"componentType":5126,
			"count":6,
			"max":[
				0.20833333333333334
			],
			"min":[
				0
			],
			"type":"SCALAR"
		},
		{
			"bufferView":8,
			"componentType":5126,
			"count":6,
			"type":"VEC3"
		},
		{
			"bufferView":9,
			"componentType":5126,
			"count":6,
			"type":"VEC4"
		},
		{
			"bufferView":10,
			"componentType":5126,
			"count":6,
			"type":"VEC3"
		},
		{
			"bufferView":11,
			"componentType":5126,
			"count":6,
			"type":"VEC3"
		},
		{
			"bufferView":12,
			"componentType":5126,
			"count":6,
			"type":"VEC4"
		},
		{
			"bufferView":13,
			"componentType":5126,
			"count":6,
			"type":"VEC3"
		}
	],
	"bufferViews":[
		{
			"buffer":0,
			"byteLength":972,
			"byteOffset":0,
			"target":34962
		},
		{
			"buffer":0,
			"byteLength":648,
			"byteOffset":972,
			"target":34962
		},
		{
			"buffer":0,
			"byteLength":972,
			"byteOffset":1620,
			"target":34962
		},
		{
			"buffer":0,
			"byteLength":324,
			"byteOffset":2592,
			"target":34962
		},
		{
			"buffer":0,
			"byteLength":1296,
			"byteOffset":2916,
			"target":34962
		},
		{
			"buffer":0,
			"byteLength":768,
			"byteOffset":4212,
			"target":34963
		},
		{
			"buffer":0,
			"byteLength":128,
			"byteOffset":4980
		},
		{
			"buffer":0,
			"byteLength":24,
			"byteOffset":5108
		},
		{
			"buffer":0,
			"byteLength":72,
			"byteOffset":5132
		},
		{
			"buffer":0,
			"byteLength":96,
			"byteOffset":5204
		},
		{
			"buffer":0,
			"byteLength":72,
			"byteOffset":5300
		},
		{
			"buffer":0,
			"byteLength":72,
			"byteOffset":5372
		},
		{
			"buffer":0,
			"byteLength":96,
			"byteOffset":5444
		},
		{
			"buffer":0,
			"byteLength":72,
			"byteOffset":5540
		}
	],
	"buffers":[
		{
			"byteLength":5612,
			"uri":"data:application/octet-stream;base64,"
		}
	]
}
