{
	"asset":{
		"generator":"Khronos glTF Blender I/O v3.5.30",
		"version":"2.0"
	},
	"scene":0,
	"scenes":[
		{
			"name":"Scene",
			"nodes":[
				2
			]
		}
	],
	"nodes":[
		{
			"mesh":0,
			"name":"Sphere",
			"translation":[
				-0.2161889672279358,
				1.3584222793579102,
				-4.574944019317627
			]
		},
		{
			"children":[
				0
			],
			"mesh":1,
			"name":"Torus",
			"translation":[
				0.13233405351638794,
				-2.125584840774536,
				-3.712460994720459
			]
		},
		{
			"children":[
				1
			],
			"name":"Empty",
			"translation":[
				-0.13233405351638794,
				2.125584840774536,
				3.712460994720459
			]
		}
	],
	"meshes":[
		{
			"name":"Sphere.001",
			"primitives":[
				{
					"attributes":{
						"POSITION":0,
						"TEXCOORD_0":1,
						"NORMAL":2
					},
					"indices":3
				}
			]
		},
		{
			"name":"Torus",
			"primitives":[
				{
					"attributes":{
						"POSITION":4,
						"TEXCOORD_0":5,
						"NORMAL":6
					},
					"indices":7
				}
			]
		}
	],
	"accessors":[
		{
			"bufferView":0,
			"componentType":5126,
			"count":1984,
			"max":[
				0.9999997019767761,
				1,
				0.9999993443489075
			],
			"min":[
				-0.9999990463256836,
				-1,
				-1
			],
			"type":"VEC3"
		},
		{
			"bufferView":1,
			"componentType":5126,
			"count":1984,
			"type":"VEC2"
		},
		{
			"bufferView":2,
			"componentType":5126,
			"count":1984,
			"type":"VEC3"
		},
		{
			"bufferView":3,
			"componentType":5123,
			"count":2880,
			"type":"SCALAR"
		},
		{
			"bufferView":4,
			"componentType":5126,
			"count":2304,
			"max":[
				1.25,
				0.25,
				1.25
			],
			"min":[
				-1.25,
				-0.25,
				-1.25
			],
			"type":"VEC3"
		},
		{
			"bufferView":5,
			"componentType":5126,
			"count":2304,
			"type":"VEC2"
		},
		{
			"bufferView":6,
			"componentType":5126,
			"count":2304,
			"type":"VEC3"
		},
		{
			"bufferView":7,
			"componentType":5123,
			"count":3456,
			"type":"SCALAR"
		}
	],
	"bufferViews":[
		{
			"buffer":0,
			"byteLength":23808,
			"byteOffset":0,
			"target":34962
		},
		{
			"buffer":0,
			"byteLength":15872,
			"byteOffset":23808,
			"target":34962
		},
		{
			"buffer":0,
			"byteLength":23808,
			"byteOffset":39680,
			"target":34962
		},
		{
			"buffer":0,
			"byteLength":5760,
			"byteOffset":63488,
			"target":34963
		},
		{
			"buffer":0,
			"byteLength":27648,
			"byteOffset":69248,
			"target":34962
		},
		{
			"buffer":0,
			"byteLength":18432,
			"byteOffset":96896,
			"target":34962
		},
		{
			"buffer":0,
			"byteLength":27648,
			"byteOffset":115328,
			"target":34962
		},
		{
			"buffer":0,
			"byteLength":6912,
			"byteOffset":142976,
			"target":34963
		}
	],
	"buffers":[
		{
			"byteLength":149888,
			"uri":"unmatched.bin"
		}
	]
}
